<?xml version="1.0" encoding="utf-8"?>
<svg width="19mm" height="19mm" viewBox="0 0 19 19" version="1.1" id="svg8" xmlns="http://www.w3.org/2000/svg">
  <g id="layer1">
    <g id="g1179" transform="matrix(1.1152651,0,0,1.1158221,8.3060348,1.1450073)">
      <rect style="fill:#ff914b;fill-opacity:1;stroke-width:0.379415" id="rect847" width="15" height="2" x="-6.430922" y="8.9835472"/>
      <rect style="fill:#ff914b;fill-opacity:1;stroke-width:0.260509" id="rect849" width="17" height="4" x="-7.430922" y="5.9835467"/>
      <rect style="fill:#ff914b;fill-opacity:1;stroke-width:0.325924" id="rect851" width="15" height="3" x="-6.430922" y="3.9835467"/>
      <rect style="fill:#ff914b;fill-opacity:1;stroke-width:0.353743" id="rect853" width="13" height="2" x="-5.430922" y="2.9835467"/>
      <rect style="fill:#ff914b;fill-opacity:1;stroke-width:0.394205" id="rect855" width="11" height="2" x="-4.430922" y="1.9835467"/>
      <rect style="fill:#ff914b;fill-opacity:1;stroke-width:0.366501" id="rect857" width="9" height="2" x="-3.4309218" y="0.98354679"/>
      <rect style="fill:#ff914b;fill-opacity:1;stroke-width:0.363588" id="rect859" width="7" height="2" x="-2.4309218" y="-0.016453231"/>
      <rect style="fill:#ff914b;fill-opacity:1;stroke-width:0.412462" id="rect861" width="5" height="2" x="-1.4309219" y="-1.0164533"/>
      <rect style="fill:#fcfcfc;fill-opacity:1;stroke-width:0.30439" id="rect873" width="9" height="5" x="-3.4309218" y="9.9835472"/>
      <rect style="fill:#fcfcfc;fill-opacity:1;stroke-width:0.286779" id="rect877" width="7" height="6" x="-2.4309218" y="9.9835472"/>
      <rect style="fill:#00a633;fill-opacity:1;stroke-width:0.264583" id="rect881" width="3" height="1" x="-5.430922" y="9.9835472"/>
      <rect style="fill:#00a633;fill-opacity:1;stroke-width:0.264583" id="rect881-3" width="3" height="1" x="4.569078" y="9.9835472"/>
      <rect style="fill:#00a633;fill-opacity:1;stroke-width:0.305514" id="rect881-3-6" width="2" height="2" x="6.569078" y="6.9835467"/>
      <rect style="fill:#00a633;fill-opacity:1;stroke-width:0.305514" id="rect881-3-6-7" width="2" height="2" x="5.569078" y="5.9835467"/>
      <rect style="fill:#00a633;fill-opacity:1;stroke-width:0.432062" id="rect881-3-6-7-5" width="2" height="4" x="2.5690782" y="-0.016453231"/>
      <rect style="fill:#00a633;fill-opacity:1;stroke-width:0.432062" id="rect881-3-6-7-5-3" width="4" height="2" x="1.5690781" y="0.98354679"/>
      <rect style="fill:#00a633;fill-opacity:1;stroke-width:0.305514" id="rect881-3-6-7-6" width="2" height="2" x="3.5690782" y="1.9835467"/>
      <rect style="fill:#00a633;fill-opacity:1;stroke-width:0.264583" id="rect881-2" width="3" height="1" x="3.5690782" y="1.9835467"/>
      <rect style="fill:#00a633;fill-opacity:1;stroke-width:0.591627" id="rect881-3-6-7-9" width="3" height="5" x="-4.430922" y="3.9835467"/>
      <rect style="fill:#00a633;fill-opacity:1;stroke-width:0.591627" id="rect881-3-6-7-1" width="5" height="3" x="-5.430922" y="4.9835467"/>
      <rect style="fill:#ff914b;fill-opacity:1;stroke-width:0.152757" id="rect881-27" width="1" height="1" x="2.5690782" y="14.983547"/>
      <rect style="fill:#ff914b;fill-opacity:1;stroke-width:0.216031" id="rect881-27-0" width="1" height="2" x="3.5690782" y="12.983547"/>
    </g>
  </g>
</svg>