<?xml version="1.0" encoding="utf-8"?>
<svg width="1em" height="1em" viewBox="0 0 16 16" class="bi bi-arrow-right-square-fill" fill="currentColor" version="1.1" id="svg4" xmlns="http://www.w3.org/2000/svg">
  <path id="path1011" style="fill:#000000;fill-opacity:1;stroke-width:4.47851;stroke-linecap:round" d="M 16 0.4 C 16 0.1 16 0 15.6 0 L 0.5 0 C 0.1 0 0 0.1 0 0.5 L 0 15.6 C 0 16 0.1 16 0.5 16 L 15.5 16 C 15.9 16 16 15.9 16 15.5 L 16 0.4 Z M 12 8 C 12 8.3 11.8 8.5 11.5 8.5 L 5.7 8.5 L 7.7 10.5 C 7.9 10.7 7.9 11 7.7 11.2 C 7.5 11.4 7.2 11.4 7 11.2 L 4.1 8.4 C 4.1 8.3 4.1 8.3 4 8.2 C 4 8.1 4 7.9 4 7.8 C 4.1 7.7 4.1 7.7 4.1 7.6 L 7 4.8 C 7.2 4.6 7.5 4.6 7.7 4.8 C 7.9 5 7.9 5.3 7.7 5.5 L 5.7 7.5 L 11.5 7.5 C 11.8 7.5 12 7.7 12 8 Z"/>
</svg>