<?xml version="1.0" encoding="utf-8"?>
<svg width="1em" height="1em" viewBox="0 0 16 16" class="bi bi-arrow-right-square-fill" fill="currentColor" version="1.1" id="svg4" xmlns="http://www.w3.org/2000/svg">
  <path id="path1011" style="fill:#000000;fill-opacity:1;stroke-width:4.47851;stroke-linecap:round" d="M 15.4 16 C 15.8 16 16 15.9 16 15.5 L 16 0.4 C 16 0 15.9 0 15.6 0 L 0.5 0 C 0.1 0 0 0.1 0 0.5 L 0 15.6 C 0 16 0.2 16 0.6 16 L 15.4 16 Z M 8 12 C 7.7 12 7.5 11.8 7.5 11.5 L 7.5 5.7 L 5.5 7.7 C 5.3 7.9 5 7.9 4.8 7.7 C 4.6 7.5 4.6 7.2 4.8 7 L 7.6 4.1 C 7.7 4.1 7.7 4.1 7.8 4 C 7.9 4 8.1 4 8.2 4 C 8.3 4.1 8.3 4.1 8.4 4.1 L 11.2 7 C 11.4 7.2 11.4 7.5 11.2 7.7 C 11 7.9 10.7 7.9 10.5 7.7 L 8.5 5.7 L 8.5 11.5 C 8.5 11.8 8.3 12 8 12 Z"/>
</svg>