<?xml version="1.0" encoding="utf-8"?>
<svg width="1em" height="1em" viewBox="0 0 16 16" class="bi bi-arrow-right-square-fill" fill="currentColor" version="1.1" id="svg4" xmlns="http://www.w3.org/2000/svg">
  <path id="path1011" style="fill:#000000;fill-opacity:1;stroke-width:4.47851;stroke-linecap:round" d="M 0.4 0 C 0 0 0 0 0 0.4 L 0 15.5 C 0 15.9 0.1 16 0.5 16 L 15.6 16 C 16 16 16 15.9 16 15.5 L 16 0.4 C 16 0 16 0 15.6 0 L 0.4 0 Z M 8 4 C 8.3 4 8.5 4.2 8.5 4.5 L 8.5 10.3 L 10.5 8.3 C 10.7 8.1 11 8.1 11.2 8.3 C 11.4 8.5 11.4 8.8 11.2 9 L 8.4 11.9 C 8.3 11.9 8.3 11.9 8.2 12 C 8.1 12 7.9 12 7.8 12 C 7.7 11.9 7.7 11.9 7.6 11.9 L 4.8 9 C 4.6 8.8 4.6 8.5 4.8 8.3 C 5 8.1 5.3 8.1 5.5 8.3 L 7.5 10.3 L 7.5 4.5 C 7.5 4.2 7.7 4 8 4 Z"/>
</svg>