<?xml version="1.0" encoding="utf-8"?>
<svg width="1em" height="1em" viewBox="0 0 16 16" class="bi bi-arrow-right-square-fill" fill="currentColor" version="1.1" xmlns="http://www.w3.org/2000/svg">
  <path id="path1011" style="fill:#000000;fill-opacity:1;stroke-width:4.47851;stroke-linecap:round" d="M 0 15.6 C 0 16 0.1 16 0.5 16 L 15.5 16 C 15.9 16 16 15.9 16 15.5 L 16 0.5 C 16 0.1 16 0 15.6 0 L 0.5 0 C 0.1 0 0 0.1 0 0.5 L 0 15.6 Z M 4 8 C 4 7.7 4.2 7.5 4.5 7.5 L 10.3 7.5 L 8.3 5.5 C 8.1 5.3 8.1 5 8.3 4.8 C 8.5 4.6 8.8 4.6 9 4.8 L 11.9 7.6 C 11.9 7.7 11.9 7.7 12 7.8 C 12 7.9 12 8.1 12 8.2 C 11.9 8.3 11.9 8.3 11.9 8.4 L 9 11.2 C 8.8 11.4 8.5 11.4 8.3 11.2 C 8.1 11 8.1 10.7 8.3 10.5 L 10.3 8.5 L 4.5 8.5 C 4.2 8.5 4 8.3 4 8 Z"/>
</svg>