<?xml version="1.0" encoding="utf-8"?>
<svg width="1em" height="1em" viewBox="0 0 16 16" class="bi bi-pause-fill" fill="currentColor" version="1.1" id="svg4" xmlns="http://www.w3.org/2000/svg">
  <path id="path843" style="fill:#000000;stroke-width:0.975" d="M 0.5 0 C 0 0 0 0 0 0.5 L 0 15.5 C 0 16 0 16 0.6 16 L 15.4 16 C 15.7 16 16 15.9 16 15.4 L 16 0.7 C 16 0.1 16.1 0 15.6 0 L 0.5 0 Z M 5.5 3.5 L 5.6 3.5 L 5.7 3.5 L 5.8 3.5 C 5.8 3.5 5.9 3.5 5.9 3.6 L 6 3.6 L 6.1 3.6 C 6.1 3.6 6.2 3.6 6.2 3.7 C 6.2 3.7 6.2 3.7 6.3 3.7 C 6.3 3.7 6.3 3.8 6.4 3.8 C 6.5 3.9 6.5 3.9 6.5 3.9 C 6.5 3.9 6.6 3.9 6.6 4 C 6.6 4 6.6 4 6.7 4 C 6.7 4.1 6.7 4.1 6.7 4.1 C 6.7 4.2 6.8 4.2 6.8 4.2 L 6.8 4.3 L 6.9 4.4 L 6.9 4.5 L 6.9 4.6 C 7 4.6 7 4.7 7 4.7 L 7 4.8 L 7 4.9 L 7 5 L 7 11 L 7 11.1 C 7 11.1 7 11.1 7 11.2 C 7 11.2 7 11.2 7 11.3 C 7 11.3 7 11.3 7 11.4 C 6.9 11.4 6.9 11.4 6.9 11.5 C 6.9 11.5 6.9 11.5 6.9 11.6 C 6.9 11.6 6.9 11.6 6.8 11.7 C 6.8 11.7 6.8 11.7 6.8 11.8 C 6.8 11.8 6.8 11.8 6.7 11.8 C 6.7 11.9 6.7 11.9 6.7 11.9 C 6.7 12 6.6 12 6.6 12 C 6.6 12 6.6 12.1 6.5 12.1 C 6.5 12.1 6.5 12.1 6.5 12.2 C 6.4 12.2 6.4 12.2 6.4 12.2 L 6.3 12.3 L 6.2 12.3 L 6.1 12.4 L 6 12.4 C 6 12.4 6 12.4 5.9 12.4 C 5.9 12.4 5.9 12.5 5.8 12.5 C 5.8 12.5 5.8 12.5 5.7 12.5 L 5.6 12.5 L 5.5 12.5 L 5.4 12.5 L 5.3 12.5 L 5.2 12.5 C 5.2 12.5 5.1 12.5 5.1 12.4 L 5 12.4 L 4.9 12.4 C 4.9 12.4 4.8 12.4 4.8 12.3 C 4.8 12.3 4.8 12.3 4.7 12.3 C 4.7 12.3 4.7 12.2 4.6 12.2 C 4.5 12.1 4.5 12.1 4.5 12.1 C 4.5 12.1 4.4 12.1 4.4 12 C 4.4 12 4.4 12 4.3 12 C 4.3 11.9 4.3 11.9 4.3 11.9 C 4.3 11.8 4.2 11.8 4.2 11.8 L 4.2 11.7 L 4.1 11.6 L 4.1 11.5 L 4.1 11.4 C 4 11.4 4 11.3 4 11.3 L 4 11.2 L 4 11.1 L 4 11 L 4 5 L 4 4.9 L 4 4.8 L 4 4.7 C 4 4.7 4 4.6 4.1 4.6 L 4.1 4.5 L 4.1 4.4 C 4.1 4.4 4.1 4.3 4.2 4.3 C 4.2 4.3 4.2 4.3 4.2 4.2 C 4.2 4.2 4.3 4.2 4.3 4.1 C 4.4 4 4.4 4 4.4 4 C 4.4 4 4.4 3.9 4.5 3.9 C 4.5 3.9 4.5 3.9 4.5 3.8 C 4.6 3.8 4.6 3.8 4.6 3.8 C 4.7 3.8 4.7 3.7 4.7 3.7 L 4.8 3.7 L 4.9 3.6 L 5 3.6 L 5.1 3.6 C 5.1 3.5 5.2 3.5 5.2 3.5 L 5.3 3.5 L 5.4 3.5 L 5.5 3.5 Z M 10.5 3.5 L 10.6 3.5 L 10.7 3.5 L 10.8 3.5 C 10.8 3.5 10.9 3.5 10.9 3.6 L 11 3.6 L 11.1 3.6 C 11.1 3.6 11.2 3.6 11.2 3.7 C 11.2 3.7 11.2 3.7 11.3 3.7 C 11.3 3.7 11.3 3.8 11.4 3.8 C 11.5 3.9 11.5 3.9 11.5 3.9 C 11.5 3.9 11.6 3.9 11.6 4 C 11.6 4 11.6 4 11.7 4 C 11.7 4.1 11.7 4.1 11.7 4.1 C 11.7 4.2 11.8 4.2 11.8 4.2 L 11.8 4.3 L 11.9 4.4 L 11.9 4.5 L 11.9 4.6 C 12 4.6 12 4.7 12 4.7 L 12 4.8 L 12 4.9 L 12 5 L 12 11 L 12 11.1 C 12 11.1 12 11.1 12 11.2 C 12 11.2 12 11.2 12 11.3 C 12 11.3 12 11.3 12 11.4 C 11.9 11.4 11.9 11.4 11.9 11.5 C 11.9 11.5 11.9 11.5 11.9 11.6 C 11.9 11.6 11.9 11.6 11.8 11.7 C 11.8 11.7 11.8 11.7 11.8 11.8 C 11.8 11.8 11.8 11.8 11.7 11.8 C 11.7 11.9 11.7 11.9 11.7 11.9 C 11.7 12 11.6 12 11.6 12 C 11.6 12 11.6 12.1 11.5 12.1 C 11.5 12.1 11.5 12.1 11.5 12.2 C 11.4 12.2 11.4 12.2 11.4 12.2 L 11.3 12.3 L 11.2 12.3 L 11.1 12.4 L 11 12.4 C 11 12.4 11 12.4 10.9 12.4 C 10.9 12.4 10.9 12.5 10.8 12.5 C 10.8 12.5 10.8 12.5 10.7 12.5 L 10.6 12.5 L 10.5 12.5 L 10.4 12.5 L 10.3 12.5 L 10.2 12.5 C 10.2 12.5 10.1 12.5 10.1 12.4 L 10 12.4 L 9.9 12.4 C 9.9 12.4 9.8 12.4 9.8 12.3 C 9.8 12.3 9.8 12.3 9.7 12.3 C 9.7 12.3 9.7 12.2 9.6 12.2 C 9.5 12.1 9.5 12.1 9.5 12.1 C 9.5 12.1 9.4 12.1 9.4 12 C 9.4 12 9.4 12 9.3 12 C 9.3 11.9 9.3 11.9 9.3 11.9 C 9.3 11.8 9.2 11.8 9.2 11.8 L 9.2 11.7 L 9.1 11.6 L 9.1 11.5 L 9.1 11.4 C 9 11.4 9 11.3 9 11.3 L 9 11.2 L 9 11.1 L 9 11 L 9 5 L 9 4.9 L 9 4.8 L 9 4.7 C 9 4.7 9 4.6 9.1 4.6 L 9.1 4.5 L 9.1 4.4 C 9.1 4.4 9.1 4.3 9.2 4.3 C 9.2 4.3 9.2 4.3 9.2 4.2 C 9.2 4.2 9.3 4.2 9.3 4.1 C 9.4 4 9.4 4 9.4 4 C 9.4 4 9.4 3.9 9.5 3.9 C 9.5 3.9 9.5 3.9 9.5 3.8 C 9.6 3.8 9.6 3.8 9.6 3.8 C 9.7 3.8 9.7 3.7 9.7 3.7 L 9.8 3.7 L 9.9 3.6 L 10 3.6 L 10.1 3.6 C 10.1 3.5 10.2 3.5 10.2 3.5 L 10.3 3.5 L 10.4 3.5 L 10.5 3.5 Z"/>
</svg>