<?xml version="1.0" encoding="utf-8"?>
<svg width="1em" height="1em" viewBox="0 0 16 16" class="bi bi-arrow-right-square-fill" fill="currentColor" version="1.1" id="svg4" xmlns="http://www.w3.org/2000/svg">
  <path id="path832" style="fill:#000000;fill-opacity:0.99973273;stroke-width:4.47851;stroke-linecap:round" d="M 0.5 0 C 0.1 0 0 0.1 0 0.5 L 0 15.5 C 0 15.9 0.1 16 0.5 16 L 15.6 16 C 16 16 16 15.9 16 15.5 L 16 0.5 C 16 0.1 15.9 0 15.5 0 L 0.5 0 Z M 5.5 3.5 C 5.5 3.5 5.6 3.5 5.6 3.5 C 5.6 3.5 5.6 3.5 5.7 3.5 C 5.7 3.5 5.7 3.6 5.8 3.6 C 5.8 3.6 5.8 3.6 5.8 3.6 C 5.8 3.6 5.9 3.6 5.9 3.6 L 11 7.5 C 11.2 7.6 11.2 7.8 11.2 8 C 11.2 8.2 11.2 8.4 11 8.5 L 5.9 12.4 C 5.9 12.4 5.8 12.4 5.8 12.4 C 5.8 12.4 5.8 12.4 5.8 12.4 C 5.7 12.4 5.7 12.5 5.6 12.5 C 5.6 12.5 5.6 12.5 5.6 12.5 C 5.6 12.5 5.5 12.5 5.5 12.5 C 5.5 12.5 5.5 12.5 5.5 12.5 C 5.4 12.5 5.4 12.5 5.4 12.5 C 5.2 12.4 5.1 12.3 5 12.1 C 5 12.1 5 12.1 5 12.1 C 5 12.1 5 12 5 12 L 5 4 C 5 4 5 3.9 5 3.9 C 5 3.9 5 3.9 5 3.9 C 5.1 3.7 5.1 3.6 5.3 3.6 C 5.3 3.5 5.3 3.5 5.4 3.5 C 5.4 3.5 5.4 3.5 5.5 3.5 C 5.5 3.5 5.5 3.5 5.5 3.5 Z"/>
</svg>