<?xml version="1.0" encoding="UTF-8" standalone="no"?>
<svg
   xmlns:dc="http://purl.org/dc/elements/1.1/"
   xmlns:cc="http://creativecommons.org/ns#"
   xmlns:rdf="http://www.w3.org/1999/02/22-rdf-syntax-ns#"
   xmlns:svg="http://www.w3.org/2000/svg"
   xmlns="http://www.w3.org/2000/svg"
   xmlns:sodipodi="http://sodipodi.sourceforge.net/DTD/sodipodi-0.dtd"
   xmlns:inkscape="http://www.inkscape.org/namespaces/inkscape"
   width="1em"
   height="1em"
   viewBox="0 0 16 16"
   class="bi bi-arrow-right-square-fill"
   fill="currentColor"
   version="1.1"
   id="svg4"
   sodipodi:docname="arrow-up.svg"
   inkscape:version="1.0.1 (0767f8302a, 2020-10-17)">
  <metadata
     id="metadata10">
    <rdf:RDF>
      <cc:Work
         rdf:about="">
        <dc:format>image/svg+xml</dc:format>
        <dc:type
           rdf:resource="http://purl.org/dc/dcmitype/StillImage" />
        <dc:title></dc:title>
      </cc:Work>
    </rdf:RDF>
  </metadata>
  <defs
     id="defs8" />
  <sodipodi:namedview
     pagecolor="#ffffff"
     bordercolor="#666666"
     borderopacity="1"
     objecttolerance="10"
     gridtolerance="10"
     guidetolerance="10"
     inkscape:pageopacity="0"
     inkscape:pageshadow="2"
     inkscape:window-width="1856"
     inkscape:window-height="1016"
     id="namedview6"
     showgrid="false"
     inkscape:pagecheckerboard="true"
     borderlayer="false"
     inkscape:zoom="52.114466"
     inkscape:cx="8.1001687"
     inkscape:cy="8.213744"
     inkscape:window-x="64"
     inkscape:window-y="27"
     inkscape:window-maximized="1"
     inkscape:current-layer="svg4"
     inkscape:document-rotation="0"
     showguides="false" />
  <path
     id="path1011"
     style="fill:#000000;fill-opacity:1;stroke-width:4.47851;stroke-linecap:round"
     d="m 15.121094,15.800781 c 0.376644,0 0.679687,-0.303043 0.679687,-0.679687 V 0.87890575 c 0,-0.376644 -0.303043,-0.679687 -0.679687,-0.679687 H 0.87890575 c -0.376644,0 -0.679687,0.303043 -0.679687,0.679687 V 15.121094 c 0,0.376644 0.303043,0.679687 0.679687,0.679687 z M 7.9999998,12 c -0.277,0 -0.5,-0.223 -0.5,-0.5 V 5.7070308 L 5.5253907,7.6816404 c -0.195869,0.1958686 -0.511163,0.1958686 -0.707032,0 -0.195868,-0.1958686 -0.195868,-0.5111627 0,-0.7070312 L 7.6464842,4.1464837 c 0.047012,-0.047012 0.1032378,-0.084075 0.1660156,-0.109375 0.1203407,-0.048967 0.2546593,-0.048967 0.375,0 0.062778,0.0253 0.1190032,0.062363 0.1660156,0.109375 L 11.18164,6.9746092 c 0.195869,0.1958685 0.195869,0.5111626 0,0.7070312 -0.195868,0.1958686 -0.511162,0.1958686 -0.707031,0 L 8.4999998,5.7070308 V 11.5 c 0,0.277 -0.223,0.5 -0.5,0.5 z" />
</svg>
