<?xml version="1.0" encoding="utf-8"?>
<svg width="1em" height="1em" viewBox="0 0 16 16" class="bi bi-arrow-down-square-fill" fill="currentColor" xmlns="http://www.w3.org/2000/svg">
  <path fill-rule="evenodd" d="M 2 0 C 0.895 0 0 0.895 0 2 L 0 14 C 0 15.105 0.895 16 2 16 L 14 16 C 15.105 16 16 15.105 16 14 L 16 2 C 16 0.895 15.105 0 14 0 L 2 0 Z M 8.5 4.5 C 8.5 4.115 8.083 3.875 7.75 4.067 C 7.595 4.156 7.5 4.321 7.5 4.5 L 7.5 10.293 L 5.354 8.146 C 5.081 7.873 4.616 7.998 4.516 8.37 C 4.47 8.543 4.52 8.728 4.646 8.854 L 7.646 11.854 C 7.841 12.05 8.159 12.05 8.354 11.854 L 11.354 8.854 C 11.627 8.581 11.502 8.116 11.13 8.016 C 10.957 7.97 10.772 8.02 10.646 8.146 L 8.5 10.293 L 8.5 4.5 Z" transform="matrix(-1, 0.000938, -0.000938, -1, 16.007504, 15.992489)"/>
</svg>