<?xml version="1.0" encoding="UTF-8" standalone="no"?>
<svg
   xmlns="http://www.w3.org/2000/svg"
   width="1em"
   height="1em"
   viewBox="0 0 16 16"
   class="bi bi-arrow-right-square-fill"
   fill="currentColor"
   version="1.1"
   id="svg4">

  <path
     id="path1011"
     style="fill:#000000;fill-opacity:1;stroke-width:4.47851;stroke-linecap:round"
     d="m 15.800781,0.87890625 c 0,-0.37664432 -0.303043,-0.6796875 -0.679687,-0.6796875 H 0.87890575 c -0.376644,0 -0.679687,0.30304318 -0.679687,0.6796875 V 15.121094 c 0,0.376644 0.303043,0.679687 0.679687,0.679687 H 15.121094 c 0.376644,0 0.679687,-0.303043 0.679687,-0.679687 z M 12,8 c 0,0.277 -0.223,0.5 -0.5,0.5 H 5.7070308 l 1.9746096,1.974609 c 0.1958686,0.195869 0.1958686,0.511163 0,0.707032 -0.1958686,0.195868 -0.5111627,0.195868 -0.7070312,0 L 4.1464837,8.3535156 C 4.0994718,8.3065032 4.0624088,8.2502778 4.0371087,8.1875 c -0.048967,-0.1203407 -0.048967,-0.2546593 0,-0.375 0.0253,-0.062778 0.062363,-0.1190032 0.109375,-0.1660156 l 2.8281255,-2.828125 c 0.1958685,-0.1958686 0.5111626,-0.1958686 0.7070312,0 0.1958686,0.1958686 0.1958686,0.5111626 0,0.7070312 L 5.7070308,7.5 H 11.5 C 11.777,7.5 12,7.723 12,8 Z" />
</svg>
