<?xml version="1.0" encoding="UTF-8" standalone="no"?>
<svg
   xmlns:dc="http://purl.org/dc/elements/1.1/"
   xmlns:cc="http://creativecommons.org/ns#"
   xmlns:rdf="http://www.w3.org/1999/02/22-rdf-syntax-ns#"
   xmlns:svg="http://www.w3.org/2000/svg"
   xmlns="http://www.w3.org/2000/svg"
   xmlns:sodipodi="http://sodipodi.sourceforge.net/DTD/sodipodi-0.dtd"
   xmlns:inkscape="http://www.inkscape.org/namespaces/inkscape"
   width="1em"
   height="1em"
   viewBox="0 0 16 16"
   class="bi bi-arrow-right-square-fill"
   fill="currentColor"
   version="1.1"
   id="svg4"
   sodipodi:docname="faster.svg"
   inkscape:version="1.0.1 (0767f8302a, 2020-10-17)">
  <metadata
     id="metadata10">
    <rdf:RDF>
      <cc:Work
         rdf:about="">
        <dc:format>image/svg+xml</dc:format>
        <dc:type
           rdf:resource="http://purl.org/dc/dcmitype/StillImage" />
        <dc:title />
      </cc:Work>
    </rdf:RDF>
  </metadata>
  <defs
     id="defs8" />
  <sodipodi:namedview
     pagecolor="#ffffff"
     bordercolor="#666666"
     borderopacity="1"
     objecttolerance="10"
     gridtolerance="10"
     guidetolerance="10"
     inkscape:pageopacity="0"
     inkscape:pageshadow="2"
     inkscape:window-width="1856"
     inkscape:window-height="1016"
     id="namedview6"
     showgrid="false"
     inkscape:pagecheckerboard="true"
     borderlayer="false"
     inkscape:zoom="49.772859"
     inkscape:cx="5.4886112"
     inkscape:cy="5.5751248"
     inkscape:window-x="1984"
     inkscape:window-y="581"
     inkscape:window-maximized="1"
     inkscape:current-layer="svg4"
     inkscape:document-rotation="0"
     showguides="true"
     inkscape:guide-bbox="true" />
  <path
     id="path837"
     style="fill:#000000;fill-opacity:0.99973273;stroke-width:4.47851;stroke-linecap:round"
     d="M 0.87890625 0.19921875 C 0.50226225 0.19921875 0.19921875 0.50226225 0.19921875 0.87890625 L 0.19921875 15.121094 C 0.19921875 15.497738 0.50226225 15.800781 0.87890625 15.800781 L 15.121094 15.800781 C 15.497738 15.800781 15.800781 15.497738 15.800781 15.121094 L 15.800781 0.87890625 C 15.800781 0.50226225 15.497738 0.19921875 15.121094 0.19921875 L 0.87890625 0.19921875 z M 2.78125 3.5 L 2.8085938 3.5 C 2.8287547 3.5 2.8457284 3.5093586 2.8652344 3.5117188 C 2.8933074 3.5156366 2.9199056 3.5203669 2.9472656 3.5292969 C 2.9938027 3.5433619 3.0347827 3.5634067 3.0742188 3.5898438 C 3.0791878 3.5932937 3.0849638 3.5939964 3.0898438 3.5976562 L 3.1269531 3.6269531 C 3.1355181 3.6345241 3.1462869 3.6383344 3.1542969 3.6464844 L 7.4960938 6.9003906 L 7.4960938 3.9863281 C 7.4960937 3.9654991 7.5053125 3.9478584 7.5078125 3.9277344 C 7.5111325 3.9078844 7.5136313 3.8886266 7.5195312 3.8691406 C 7.5530883 3.7365321 7.6367652 3.6302713 7.7539062 3.5664062 C 7.7970782 3.5428703 7.8426481 3.5271881 7.8925781 3.5175781 C 7.9115981 3.5132791 7.9298288 3.5078494 7.9492188 3.5058594 C 7.9607487 3.5050494 7.9706719 3.5 7.9824219 3.5 L 8.0097656 3.5 C 8.0299256 3.5 8.0468963 3.5093587 8.0664062 3.5117188 C 8.0944763 3.5156367 8.1210775 3.5203669 8.1484375 3.5292969 C 8.1949715 3.5433619 8.2359506 3.5634066 8.2753906 3.5898438 C 8.2803606 3.5932937 8.2861156 3.5939964 8.2910156 3.5976562 L 8.328125 3.6269531 C 8.336685 3.6345241 8.3474687 3.6383344 8.3554688 3.6464844 L 13.513672 7.5117188 C 13.669823 7.6287927 13.732102 7.821309 13.695312 8 C 13.732103 8.178692 13.669826 8.3692541 13.513672 8.4863281 L 8.3554688 12.353516 C 8.3474688 12.361666 8.336725 12.365447 8.328125 12.373047 L 8.2910156 12.402344 C 8.2861056 12.406044 8.2803906 12.406656 8.2753906 12.410156 C 8.2343076 12.437696 8.1913181 12.458596 8.1425781 12.472656 C 8.1198281 12.479726 8.0974587 12.482728 8.0742188 12.486328 C 8.0521187 12.489378 8.0327356 12.5 8.0097656 12.5 L 7.9824219 12.5 C 7.9705419 12.5 7.9608887 12.493016 7.9492188 12.492188 C 7.9297987 12.490187 7.9116281 12.486722 7.8925781 12.482422 C 7.7071571 12.446732 7.5654512 12.312336 7.5195312 12.130859 C 7.5137114 12.111379 7.5111125 12.092116 7.5078125 12.072266 C 7.5052925 12.052146 7.4960938 12.034502 7.4960938 12.013672 L 7.4960938 9.0976562 L 3.1542969 12.353516 C 3.1462889 12.361666 3.1355131 12.365447 3.1269531 12.373047 L 3.0898438 12.402344 C 3.0849418 12.406044 3.0792086 12.406656 3.0742188 12.410156 C 3.0331383 12.437696 2.9901423 12.458596 2.9414062 12.472656 C 2.9186553 12.479726 2.8962919 12.482728 2.8730469 12.486328 C 2.8509449 12.489368 2.8315596 12.5 2.8085938 12.5 L 2.78125 12.5 C 2.769365 12.5 2.7597139 12.493016 2.7480469 12.492188 C 2.7286269 12.490186 2.7104564 12.486722 2.6914062 12.482422 C 2.5059852 12.446732 2.3642824 12.312337 2.3183594 12.130859 C 2.3124904 12.111379 2.3099906 12.092116 2.3066406 12.072266 C 2.3041216 12.052146 2.2949219 12.034502 2.2949219 12.013672 L 2.2949219 3.9863281 C 2.2949219 3.9654991 2.3041306 3.9478584 2.3066406 3.9277344 C 2.3099896 3.9078844 2.3124894 3.8886266 2.3183594 3.8691406 C 2.3519158 3.7365321 2.4355933 3.6302713 2.5527344 3.5664062 C 2.5959033 3.5428703 2.6414754 3.5271881 2.6914062 3.5175781 C 2.7104304 3.5132791 2.7286549 3.5078494 2.7480469 3.5058594 C 2.7595819 3.5050494 2.769502 3.5 2.78125 3.5 z " />
</svg>
