<?xml version="1.0" encoding="UTF-8" standalone="no"?>
<svg

   xmlns="http://www.w3.org/2000/svg"

   width="1em"
   height="1em"
   viewBox="0 0 16 16"
   class="bi bi-arrow-right-square-fill"
   fill="currentColor"
   version="1.1"
   id="svg4"
>

     inkscape:document-rotation="0" />
  <path
     id="path864"
     style="fill:#000000;fill-opacity:1;stroke-width:4.4785;stroke-linecap:round"
     d="M 0.87890625 0.19921875 C 0.50226193 0.19921875 0.19921875 0.50226193 0.19921875 0.87890625 L 0.19921875 15.121094 C 0.19921875 15.497738 0.50226193 15.800781 0.87890625 15.800781 L 15.121094 15.800781 C 15.497738 15.800781 15.800781 15.497738 15.800781 15.121094 L 15.800781 0.87890625 C 15.800781 0.50226193 15.497738 0.19921875 15.121094 0.19921875 L 0.87890625 0.19921875 z M 14.5 1 C 14.62781 1 14.755581 1.0485501 14.853516 1.1464844 C 15.049384 1.342353 15.049384 1.657647 14.853516 1.8535156 L 10.757812 5.9511719 L 13.550781 5.9511719 C 13.827781 5.9511719 14.050781 6.1741719 14.050781 6.4511719 C 14.050781 6.7281719 13.827781 6.9511719 13.550781 6.9511719 L 9.5507812 6.9511719 C 9.4843281 6.9511719 9.4211854 6.9373981 9.3632812 6.9140625 C 9.3005036 6.8887628 9.244278 6.8516999 9.1972656 6.8046875 C 9.1516436 6.7590655 9.115101 6.7050827 9.0898438 6.6445312 C 9.0636045 6.5825184 9.0507812 6.517328 9.0507812 6.4511719 L 9.0507812 2.4511719 C 9.0507812 2.1741719 9.2737815 1.9511719 9.5507812 1.9511719 C 9.8277814 1.9511719 10.050781 2.1741719 10.050781 2.4511719 L 10.050781 5.2421875 L 14.146484 1.1464844 C 14.244419 1.0485501 14.37219 1 14.5 1 z M 8 7.4003906 C 8.3324 7.4003906 8.5996094 7.6676 8.5996094 8 C 8.5996094 8.3324 8.3324 8.5996094 8 8.5996094 C 7.6676 8.5996094 7.4003906 8.3324 7.4003906 8 C 7.4003906 7.6676 7.6676 7.4003906 8 7.4003906 z M 2.4511719 9.0507812 L 6.4511719 9.0507812 C 6.517328 9.0507812 6.5825183 9.0636047 6.6445312 9.0898438 C 6.6445312 9.0898438 6.6464844 9.0898438 6.6464844 9.0898438 C 6.7037302 9.1142813 6.7578429 9.150421 6.8046875 9.1972656 C 6.8516999 9.244278 6.8887628 9.3005036 6.9140625 9.3632812 C 6.9373981 9.4211853 6.9511719 9.484328 6.9511719 9.5507812 L 6.9511719 13.550781 C 6.9511719 13.827781 6.7281719 14.050781 6.4511719 14.050781 C 6.1741719 14.050781 5.9511719 13.827781 5.9511719 13.550781 L 5.9511719 10.757812 L 1.8535156 14.853516 C 1.657647 15.049384 1.342353 15.049384 1.1464844 14.853516 C 0.95061582 14.657647 0.95061582 14.342353 1.1464844 14.146484 L 5.2421875 10.050781 L 2.4511719 10.050781 C 2.1741719 10.050781 1.9511719 9.8277814 1.9511719 9.5507812 C 1.9511719 9.2737814 2.1741719 9.0507812 2.4511719 9.0507812 z " />
</svg>
