<?xml version="1.0" encoding="UTF-8" standalone="no"?>
<svg

   xmlns="http://www.w3.org/2000/svg"

   width="1em"
   height="1em"
   viewBox="0 0 16 16"
   class="bi bi-arrow-right-square-fill"
   fill="currentColor"
   version="1.1"
   id="svg4"
>

  <path
     id="path860"
     style="fill:#000000;fill-opacity:1;stroke-width:4.4785;stroke-linecap:round"
     d="M 0.87890625 0.19921875 C 0.50226193 0.19921875 0.19921875 0.50226193 0.19921875 0.87890625 L 0.19921875 15.121094 C 0.19921875 15.497738 0.50226193 15.800781 0.87890625 15.800781 L 15.121094 15.800781 C 15.497738 15.800781 15.800781 15.497738 15.800781 15.121094 L 15.800781 0.87890625 C 15.800781 0.50226193 15.497738 0.19921875 15.121094 0.19921875 L 0.87890625 0.19921875 z M 10.5 1 L 14.5 1 C 14.566453 1 14.629596 1.0137738 14.6875 1.0371094 C 14.750278 1.0624091 14.806503 1.099472 14.853516 1.1464844 C 14.898703 1.1916719 14.935702 1.2448281 14.960938 1.3046875 L 14.960938 1.3066406 C 14.987175 1.3686536 15 1.4338439 15 1.5 L 15 5.5 C 15 5.777 14.777 6 14.5 6 C 14.223 6 14 5.777 14 5.5 L 14 2.7070312 L 9.9042969 6.8046875 C 9.7084283 7.0005561 9.3931342 7.0005561 9.1972656 6.8046875 C 9.001397 6.6088189 9.001397 6.2915717 9.1972656 6.0957031 L 13.292969 2 L 10.5 2 C 10.223 2 10 1.777 10 1.5 C 10 1.223 10.223 1 10.5 1 z M 8 7.4003906 C 8.3324 7.4003906 8.5996094 7.6676 8.5996094 8 C 8.5996094 8.3324 8.3324 8.5996094 8 8.5996094 C 7.6676 8.5996094 7.4003906 8.3324 7.4003906 8 C 7.4003906 7.6676 7.6676 7.4003906 8 7.4003906 z M 6.4511719 9.0507812 C 6.5789814 9.0507812 6.7067532 9.0993313 6.8046875 9.1972656 C 7.0005561 9.3931342 7.0005561 9.7084283 6.8046875 9.9042969 L 2.7070312 14 L 5.5 14 C 5.777 14 6 14.223 6 14.5 C 6 14.777 5.777 15 5.5 15 L 1.5 15 C 1.4338439 15 1.3686536 14.987175 1.3066406 14.960938 L 1.3046875 14.960938 C 1.1825514 14.909448 1.0867267 14.810619 1.0371094 14.6875 C 1.0126258 14.62733 1 14.563905 1 14.5 L 1 10.5 C 1 10.223 1.223 10 1.5 10 C 1.777 10 2 10.223 2 10.5 L 2 13.292969 L 6.0957031 9.1972656 C 6.1936374 9.0993313 6.3233623 9.0507812 6.4511719 9.0507812 z " />
</svg>
