<?xml version="1.0" encoding="UTF-8" standalone="no"?>
<svg
   xmlns:dc="http://purl.org/dc/elements/1.1/"
   xmlns:cc="http://creativecommons.org/ns#"
   xmlns:rdf="http://www.w3.org/1999/02/22-rdf-syntax-ns#"
   xmlns:svg="http://www.w3.org/2000/svg"
   xmlns="http://www.w3.org/2000/svg"
   xmlns:sodipodi="http://sodipodi.sourceforge.net/DTD/sodipodi-0.dtd"
   xmlns:inkscape="http://www.inkscape.org/namespaces/inkscape"
   width="1em"
   height="1em"
   viewBox="0 0 16 16"
   class="bi bi-pause-fill"
   fill="currentColor"
   version="1.1"
   id="svg4"
   sodipodi:docname="pause.svg"
   inkscape:version="1.0.1 (3bc2e813f5, 2020-09-07)">
  <metadata
     id="metadata10">
    <rdf:RDF>
      <cc:Work
         rdf:about="">
        <dc:format>image/svg+xml</dc:format>
        <dc:type
           rdf:resource="http://purl.org/dc/dcmitype/StillImage" />
      </cc:Work>
    </rdf:RDF>
  </metadata>
  <defs
     id="defs8" />
  <sodipodi:namedview
     pagecolor="#ffffff"
     bordercolor="#666666"
     borderopacity="1"
     objecttolerance="10"
     gridtolerance="10"
     guidetolerance="10"
     inkscape:pageopacity="0"
     inkscape:pageshadow="2"
     inkscape:window-width="1920"
     inkscape:window-height="1043"
     id="namedview6"
     showgrid="false"
     inkscape:snap-page="true"
     inkscape:zoom="54.375"
     inkscape:cx="8"
     inkscape:cy="7.2643678"
     inkscape:window-x="0"
     inkscape:window-y="0"
     inkscape:window-maximized="1"
     inkscape:current-layer="svg4" />
  <g
     style="fill:currentColor"
     id="g846">
    <path
       fill-rule="evenodd"
       d="M 0,2 C 0,0.8954305 0.8954305,0 2,0 h 12 c 1.104569,0 2,0.8954305 2,2 v 12 c 0,1.104569 -0.895431,2 -2,2 H 2 C 0.8954305,16 0,15.104569 0,14 Z"
       id="path835"
       sodipodi:nodetypes="sssssssss" />
  </g>
  <path
     d="M5.5 3.5A1.5 1.5 0 0 1 7 5v6a1.5 1.5 0 0 1-3 0V5a1.5 1.5 0 0 1 1.5-1.5zm5 0A1.5 1.5 0 0 1 12 5v6a1.5 1.5 0 0 1-3 0V5a1.5 1.5 0 0 1 1.5-1.5z"
     id="path2"
     style="fill:#fefdfd;fill-opacity:1" />
</svg>
