<?xml version="1.0" encoding="UTF-8" standalone="no"?>
<svg
   xmlns:dc="http://purl.org/dc/elements/1.1/"
   xmlns:cc="http://creativecommons.org/ns#"
   xmlns:rdf="http://www.w3.org/1999/02/22-rdf-syntax-ns#"
   xmlns:svg="http://www.w3.org/2000/svg"
   xmlns="http://www.w3.org/2000/svg"
   xmlns:sodipodi="http://sodipodi.sourceforge.net/DTD/sodipodi-0.dtd"
   xmlns:inkscape="http://www.inkscape.org/namespaces/inkscape"
   width="1em"
   height="1em"
   viewBox="0 0 16 16"
   class="bi bi-pause-fill"
   fill="currentColor"
   version="1.1"
   id="svg4"
   sodipodi:docname="pause.svg"
   inkscape:version="1.0.1 (0767f8302a, 2020-10-17)">
  <metadata
     id="metadata10">
    <rdf:RDF>
      <cc:Work
         rdf:about="">
        <dc:format>image/svg+xml</dc:format>
        <dc:type
           rdf:resource="http://purl.org/dc/dcmitype/StillImage" />
      </cc:Work>
    </rdf:RDF>
  </metadata>
  <defs
     id="defs8" />
  <sodipodi:namedview
     pagecolor="#ffffff"
     bordercolor="#666666"
     borderopacity="1"
     objecttolerance="10"
     gridtolerance="10"
     guidetolerance="10"
     inkscape:pageopacity="0"
     inkscape:pageshadow="2"
     inkscape:window-width="1920"
     inkscape:window-height="1043"
     id="namedview6"
     showgrid="false"
     inkscape:snap-page="true"
     inkscape:zoom="53.764045"
     inkscape:cx="8"
     inkscape:cy="5.7763845"
     inkscape:window-x="0"
     inkscape:window-y="0"
     inkscape:window-maximized="1"
     inkscape:current-layer="svg4"
     inkscape:document-rotation="0" />
  <path
     id="path843"
     style="fill:#000000;stroke-width:0.975"
     d="M 2.1503906 0.19921875 C 1.0734354 0.19921875 0.19921875 1.0734354 0.19921875 2.1503906 L 0.19921875 13.849609 C 0.19921875 14.926562 1.0734354 15.800781 2.1503906 15.800781 L 13.849609 15.800781 C 14.926562 15.800781 15.800781 14.926562 15.800781 13.849609 L 15.800781 2.1503906 C 15.800781 1.0734354 14.926562 0.19921875 13.849609 0.19921875 L 2.1503906 0.19921875 z M 5.5 3.5 A 1.5 1.5 0 0 1 5.5898438 3.5019531 A 1.5 1.5 0 0 1 5.6933594 3.5117188 A 1.5 1.5 0 0 1 5.7949219 3.5292969 A 1.5 1.5 0 0 1 5.8945312 3.5527344 A 1.5 1.5 0 0 1 5.9921875 3.5839844 A 1.5 1.5 0 0 1 6.0898438 3.6210938 A 1.5 1.5 0 0 1 6.1816406 3.6640625 A 1.5 1.5 0 0 1 6.2714844 3.7148438 A 1.5 1.5 0 0 1 6.359375 3.7695312 A 1.5 1.5 0 0 1 6.4414062 3.8320312 A 1.5 1.5 0 0 1 6.5195312 3.8984375 A 1.5 1.5 0 0 1 6.5917969 3.9726562 A 1.5 1.5 0 0 1 6.6601562 4.0488281 A 1.5 1.5 0 0 1 6.7226562 4.1308594 A 1.5 1.5 0 0 1 6.7792969 4.2167969 A 1.5 1.5 0 0 1 6.8300781 4.3066406 A 1.5 1.5 0 0 1 6.875 4.3984375 A 1.5 1.5 0 0 1 6.9121094 4.4941406 A 1.5 1.5 0 0 1 6.9433594 4.59375 A 1.5 1.5 0 0 1 6.96875 4.6933594 A 1.5 1.5 0 0 1 6.9863281 4.7949219 A 1.5 1.5 0 0 1 6.9960938 4.8964844 A 1.5 1.5 0 0 1 7 5 L 7 11 A 1.5 1.5 0 0 1 6.9980469 11.078125 A 1.5 1.5 0 0 1 6.9882812 11.179688 A 1.5 1.5 0 0 1 6.9726562 11.28125 A 1.5 1.5 0 0 1 6.9511719 11.382812 A 1.5 1.5 0 0 1 6.9199219 11.480469 A 1.5 1.5 0 0 1 6.8847656 11.578125 A 1.5 1.5 0 0 1 6.8417969 11.671875 A 1.5 1.5 0 0 1 6.7929688 11.761719 A 1.5 1.5 0 0 1 6.7363281 11.847656 A 1.5 1.5 0 0 1 6.6757812 11.931641 A 1.5 1.5 0 0 1 6.609375 12.009766 A 1.5 1.5 0 0 1 6.5371094 12.083984 A 1.5 1.5 0 0 1 6.4609375 12.152344 A 1.5 1.5 0 0 1 6.3789062 12.214844 A 1.5 1.5 0 0 1 6.2929688 12.273438 A 1.5 1.5 0 0 1 6.2050781 12.324219 A 1.5 1.5 0 0 1 6.1113281 12.369141 A 1.5 1.5 0 0 1 6.0175781 12.408203 A 1.5 1.5 0 0 1 5.9179688 12.439453 A 1.5 1.5 0 0 1 5.8183594 12.464844 A 1.5 1.5 0 0 1 5.7167969 12.484375 A 1.5 1.5 0 0 1 5.6152344 12.496094 A 1.5 1.5 0 0 1 5.5117188 12.5 A 1.5 1.5 0 0 1 5.4101562 12.498047 A 1.5 1.5 0 0 1 5.3066406 12.488281 A 1.5 1.5 0 0 1 5.2050781 12.470703 A 1.5 1.5 0 0 1 5.1054688 12.447266 A 1.5 1.5 0 0 1 5.0078125 12.416016 A 1.5 1.5 0 0 1 4.9101562 12.378906 A 1.5 1.5 0 0 1 4.8183594 12.335938 A 1.5 1.5 0 0 1 4.7285156 12.285156 A 1.5 1.5 0 0 1 4.640625 12.230469 A 1.5 1.5 0 0 1 4.5585938 12.167969 A 1.5 1.5 0 0 1 4.4804688 12.101562 A 1.5 1.5 0 0 1 4.4082031 12.027344 A 1.5 1.5 0 0 1 4.3398438 11.951172 A 1.5 1.5 0 0 1 4.2773438 11.869141 A 1.5 1.5 0 0 1 4.2207031 11.783203 A 1.5 1.5 0 0 1 4.1699219 11.693359 A 1.5 1.5 0 0 1 4.125 11.601562 A 1.5 1.5 0 0 1 4.0878906 11.505859 A 1.5 1.5 0 0 1 4.0566406 11.40625 A 1.5 1.5 0 0 1 4.03125 11.306641 A 1.5 1.5 0 0 1 4.0136719 11.205078 A 1.5 1.5 0 0 1 4.0039062 11.103516 A 1.5 1.5 0 0 1 4 11 L 4 5 A 1.5 1.5 0 0 1 4.0019531 4.9101562 A 1.5 1.5 0 0 1 4.0117188 4.8066406 A 1.5 1.5 0 0 1 4.0292969 4.7050781 A 1.5 1.5 0 0 1 4.0527344 4.6054688 A 1.5 1.5 0 0 1 4.0839844 4.5078125 A 1.5 1.5 0 0 1 4.1210938 4.4101562 A 1.5 1.5 0 0 1 4.1640625 4.3183594 A 1.5 1.5 0 0 1 4.2148438 4.2285156 A 1.5 1.5 0 0 1 4.2695312 4.140625 A 1.5 1.5 0 0 1 4.3320312 4.0585938 A 1.5 1.5 0 0 1 4.3984375 3.9804688 A 1.5 1.5 0 0 1 4.4726562 3.9082031 A 1.5 1.5 0 0 1 4.5488281 3.8398438 A 1.5 1.5 0 0 1 4.6308594 3.7773438 A 1.5 1.5 0 0 1 4.7167969 3.7207031 A 1.5 1.5 0 0 1 4.8066406 3.6699219 A 1.5 1.5 0 0 1 4.8984375 3.625 A 1.5 1.5 0 0 1 4.9941406 3.5878906 A 1.5 1.5 0 0 1 5.09375 3.5566406 A 1.5 1.5 0 0 1 5.1933594 3.53125 A 1.5 1.5 0 0 1 5.2949219 3.5136719 A 1.5 1.5 0 0 1 5.3964844 3.5039062 A 1.5 1.5 0 0 1 5.5 3.5 z M 10.5 3.5 A 1.5 1.5 0 0 1 10.589844 3.5019531 A 1.5 1.5 0 0 1 10.693359 3.5117188 A 1.5 1.5 0 0 1 10.794922 3.5292969 A 1.5 1.5 0 0 1 10.894531 3.5527344 A 1.5 1.5 0 0 1 10.992188 3.5839844 A 1.5 1.5 0 0 1 11.089844 3.6210938 A 1.5 1.5 0 0 1 11.181641 3.6640625 A 1.5 1.5 0 0 1 11.271484 3.7148438 A 1.5 1.5 0 0 1 11.359375 3.7695312 A 1.5 1.5 0 0 1 11.441406 3.8320312 A 1.5 1.5 0 0 1 11.519531 3.8984375 A 1.5 1.5 0 0 1 11.591797 3.9726562 A 1.5 1.5 0 0 1 11.660156 4.0488281 A 1.5 1.5 0 0 1 11.722656 4.1308594 A 1.5 1.5 0 0 1 11.779297 4.2167969 A 1.5 1.5 0 0 1 11.830078 4.3066406 A 1.5 1.5 0 0 1 11.875 4.3984375 A 1.5 1.5 0 0 1 11.912109 4.4941406 A 1.5 1.5 0 0 1 11.943359 4.59375 A 1.5 1.5 0 0 1 11.96875 4.6933594 A 1.5 1.5 0 0 1 11.986328 4.7949219 A 1.5 1.5 0 0 1 11.996094 4.8964844 A 1.5 1.5 0 0 1 12 5 L 12 11 A 1.5 1.5 0 0 1 11.998047 11.078125 A 1.5 1.5 0 0 1 11.988281 11.179688 A 1.5 1.5 0 0 1 11.972656 11.28125 A 1.5 1.5 0 0 1 11.951172 11.382812 A 1.5 1.5 0 0 1 11.919922 11.480469 A 1.5 1.5 0 0 1 11.884766 11.578125 A 1.5 1.5 0 0 1 11.841797 11.671875 A 1.5 1.5 0 0 1 11.792969 11.761719 A 1.5 1.5 0 0 1 11.736328 11.847656 A 1.5 1.5 0 0 1 11.675781 11.931641 A 1.5 1.5 0 0 1 11.609375 12.009766 A 1.5 1.5 0 0 1 11.537109 12.083984 A 1.5 1.5 0 0 1 11.460938 12.152344 A 1.5 1.5 0 0 1 11.378906 12.214844 A 1.5 1.5 0 0 1 11.292969 12.273438 A 1.5 1.5 0 0 1 11.205078 12.324219 A 1.5 1.5 0 0 1 11.111328 12.369141 A 1.5 1.5 0 0 1 11.017578 12.408203 A 1.5 1.5 0 0 1 10.917969 12.439453 A 1.5 1.5 0 0 1 10.818359 12.464844 A 1.5 1.5 0 0 1 10.716797 12.484375 A 1.5 1.5 0 0 1 10.615234 12.496094 A 1.5 1.5 0 0 1 10.511719 12.5 A 1.5 1.5 0 0 1 10.410156 12.498047 A 1.5 1.5 0 0 1 10.306641 12.488281 A 1.5 1.5 0 0 1 10.205078 12.470703 A 1.5 1.5 0 0 1 10.105469 12.447266 A 1.5 1.5 0 0 1 10.007812 12.416016 A 1.5 1.5 0 0 1 9.9101562 12.378906 A 1.5 1.5 0 0 1 9.8183594 12.335938 A 1.5 1.5 0 0 1 9.7285156 12.285156 A 1.5 1.5 0 0 1 9.640625 12.230469 A 1.5 1.5 0 0 1 9.5585938 12.167969 A 1.5 1.5 0 0 1 9.4804688 12.101562 A 1.5 1.5 0 0 1 9.4082031 12.027344 A 1.5 1.5 0 0 1 9.3398438 11.951172 A 1.5 1.5 0 0 1 9.2773438 11.869141 A 1.5 1.5 0 0 1 9.2207031 11.783203 A 1.5 1.5 0 0 1 9.1699219 11.693359 A 1.5 1.5 0 0 1 9.125 11.601562 A 1.5 1.5 0 0 1 9.0878906 11.505859 A 1.5 1.5 0 0 1 9.0566406 11.40625 A 1.5 1.5 0 0 1 9.03125 11.306641 A 1.5 1.5 0 0 1 9.0136719 11.205078 A 1.5 1.5 0 0 1 9.0039062 11.103516 A 1.5 1.5 0 0 1 9 11 L 9 5 A 1.5 1.5 0 0 1 9.0019531 4.9101562 A 1.5 1.5 0 0 1 9.0117188 4.8066406 A 1.5 1.5 0 0 1 9.0292969 4.7050781 A 1.5 1.5 0 0 1 9.0527344 4.6054688 A 1.5 1.5 0 0 1 9.0839844 4.5078125 A 1.5 1.5 0 0 1 9.1210938 4.4101562 A 1.5 1.5 0 0 1 9.1640625 4.3183594 A 1.5 1.5 0 0 1 9.2148438 4.2285156 A 1.5 1.5 0 0 1 9.2695312 4.140625 A 1.5 1.5 0 0 1 9.3320312 4.0585938 A 1.5 1.5 0 0 1 9.3984375 3.9804688 A 1.5 1.5 0 0 1 9.4726562 3.9082031 A 1.5 1.5 0 0 1 9.5488281 3.8398438 A 1.5 1.5 0 0 1 9.6308594 3.7773438 A 1.5 1.5 0 0 1 9.7167969 3.7207031 A 1.5 1.5 0 0 1 9.8066406 3.6699219 A 1.5 1.5 0 0 1 9.8984375 3.625 A 1.5 1.5 0 0 1 9.9941406 3.5878906 A 1.5 1.5 0 0 1 10.09375 3.5566406 A 1.5 1.5 0 0 1 10.193359 3.53125 A 1.5 1.5 0 0 1 10.294922 3.5136719 A 1.5 1.5 0 0 1 10.396484 3.5039062 A 1.5 1.5 0 0 1 10.5 3.5 z " />
</svg>
