<?xml version="1.0" encoding="UTF-8" standalone="no"?>
<svg

   xmlns="http://www.w3.org/2000/svg"

   width="1em"
   height="1em"
   viewBox="0 0 16 16"
   class="bi bi-arrow-right-square-fill"
   fill="currentColor"
   version="1.1"
   id="svg4"
>

  <path
     id="path832"
     style="fill:#000000;fill-opacity:0.99973273;stroke-width:4.47851;stroke-linecap:round"
     d="M 0.87890625 0.19921875 C 0.50226225 0.19921875 0.19921875 0.50226225 0.19921875 0.87890625 L 0.19921875 15.121094 C 0.19921875 15.497738 0.50226225 15.800781 0.87890625 15.800781 L 15.121094 15.800781 C 15.497738 15.800781 15.800781 15.497738 15.800781 15.121094 L 15.800781 0.87890625 C 15.800781 0.50226225 15.497738 0.19921875 15.121094 0.19921875 L 0.87890625 0.19921875 z M 5.4863281 3.5 L 5.5136719 3.5 C 5.5338334 3.5 5.5508069 3.5093582 5.5703125 3.5117188 C 5.5983855 3.5156368 5.6249838 3.5203669 5.6523438 3.5292969 C 5.6988809 3.5433619 5.7398609 3.5634067 5.7792969 3.5898438 C 5.7842659 3.5932937 5.7900419 3.5939963 5.7949219 3.5976562 L 5.8320312 3.6269531 C 5.8405963 3.6345241 5.851365 3.6383344 5.859375 3.6464844 L 11.017578 7.5117188 C 11.173732 7.6287921 11.236009 7.8213088 11.199219 8 C 11.236009 8.1786915 11.173732 8.3692549 11.017578 8.4863281 L 5.859375 12.353516 C 5.851367 12.361666 5.8405913 12.365447 5.8320312 12.373047 L 5.7949219 12.402344 C 5.7900199 12.406044 5.7842869 12.406656 5.7792969 12.410156 C 5.7382164 12.437696 5.6952204 12.458596 5.6464844 12.472656 C 5.6237334 12.479726 5.60137 12.482728 5.578125 12.486328 C 5.556023 12.489378 5.5366379 12.5 5.5136719 12.5 L 5.4863281 12.5 C 5.4744431 12.5 5.464792 12.493016 5.453125 12.492188 C 5.433705 12.490187 5.4155344 12.486722 5.3964844 12.482422 C 5.2110633 12.446733 5.0693605 12.312337 5.0234375 12.130859 C 5.0175685 12.111379 5.0150688 12.092116 5.0117188 12.072266 C 5.0091998 12.052146 5 12.034502 5 12.013672 L 5 3.9863281 C 5 3.9654998 5.0092053 3.9478588 5.0117188 3.9277344 C 5.0150677 3.9078844 5.0175675 3.8886266 5.0234375 3.8691406 C 5.0569939 3.7365321 5.1406714 3.6302712 5.2578125 3.5664062 C 5.3009814 3.5428703 5.3465534 3.5271881 5.3964844 3.5175781 C 5.4155084 3.5132791 5.433733 3.5078494 5.453125 3.5058594 C 5.46466 3.5050494 5.4745801 3.5 5.4863281 3.5 z " />
</svg>
