<?xml version="1.0" encoding="UTF-8" standalone="no"?>
<svg

   xmlns="http://www.w3.org/2000/svg"

   width="1em"
   height="1em"
   viewBox="0 0 16 16"
   class="bi bi-fullscreen"
   fill="currentColor"
   version="1.1"
   id="svg8"
>

  <path
     id="path1011"
     style="fill:#000000;fill-opacity:0.99973303;stroke-width:4.47851;stroke-linecap:round"
     d="M 0.87890625 0.19921875 C 0.50226225 0.19921875 0.19921875 0.50226225 0.19921875 0.87890625 L 0.19921875 15.121094 C 0.19921875 15.497738 0.50226225 15.800781 0.87890625 15.800781 L 15.121094 15.800781 C 15.497738 15.800781 15.800781 15.497738 15.800781 15.121094 L 15.800781 0.87890625 C 15.800781 0.50226225 15.497738 0.19921875 15.121094 0.19921875 L 0.87890625 0.19921875 z M 1.7949219 0.40039062 A 1.425 1.425 0 0 1 1.8242188 0.40039062 L 5.625 0.40039062 A 0.475 0.475 0 0 1 5.625 1.3496094 L 1.8242188 1.3496094 A 0.475 0.475 0 0 0 1.3496094 1.8242188 L 1.3496094 5.625 A 0.475 0.475 0 0 1 0.40039062 5.625 L 0.40039062 1.8242188 A 1.425 1.425 0 0 1 1.7949219 0.40039062 z M 10.375 0.40039062 L 14.175781 0.40039062 A 1.425 1.425 0 0 1 15.599609 1.8242188 L 15.599609 5.625 A 0.475 0.475 0 0 1 14.650391 5.625 L 14.650391 1.8242188 A 0.475 0.475 0 0 0 14.175781 1.3496094 L 10.375 1.3496094 A 0.475 0.475 0 0 1 9.9003906 0.875 A 0.475 0.475 0 0 1 10.375 0.40039062 z M 11.25 2.4003906 C 12.75 2.4003906 14.25 3.5660782 14.25 5.8964844 L 14.248047 6.9941406 L 13.248047 6.9941406 L 13.25 5.8925781 C 13.2511 2.5634246 9.2400914 2.57906 9.2480469 5.9082031 L 9.25 7 L 8.25 7 L 8.25 7.5 L 9.25 7.5 L 9.25 7.0058594 A 1.636364 1.444445 0 0 1 10.75 8.4453125 L 10.75 12.054688 A 1.636364 1.444445 0 0 1 9.1132812 13.5 L 3.3867188 13.5 A 1.636364 1.444445 0 0 1 1.75 12.054688 L 1.75 8.4453125 A 1.636364 1.444445 0 0 1 3.3632812 7 A 1.636364 1.444445 0 0 1 3.3867188 7 L 8.25 7 L 8.25 5.8964844 C 8.25 3.5660782 9.75 2.4003906 11.25 2.4003906 z M 6.2207031 8.0996094 A 1 1 0 0 0 5.5429688 8.3945312 A 1 1 0 0 0 5.5429688 9.8066406 A 1 1 0 0 0 5.6269531 9.8808594 C 5.6145361 9.9245824 5.5996094 9.9678156 5.5996094 10.015625 L 5.5996094 11.515625 C 5.5996094 11.792625 5.8226094 12.015625 6.0996094 12.015625 L 6.4003906 12.015625 C 6.6773906 12.015625 6.9003906 11.792625 6.9003906 11.515625 L 6.9003906 10.015625 C 6.9003906 9.967816 6.8854639 9.9245818 6.8730469 9.8808594 A 1 1 0 0 0 6.9570312 9.8085938 A 1 1 0 0 0 6.9589844 8.3945312 L 6.9550781 8.390625 A 1 1 0 0 0 6.2207031 8.0996094 z M 0.875 9.9003906 A 0.475 0.475 0 0 1 1.3496094 10.375 L 1.3496094 14.175781 A 0.475 0.475 0 0 0 1.8242188 14.650391 L 5.625 14.650391 A 0.475 0.475 0 0 1 5.625 15.599609 L 1.8242188 15.599609 A 1.425 1.425 0 0 1 0.40039062 14.175781 L 0.40039062 10.375 A 0.475 0.475 0 0 1 0.875 9.9003906 z M 15.125 9.9003906 A 0.475 0.475 0 0 1 15.599609 10.375 L 15.599609 14.175781 A 1.425 1.425 0 0 1 14.175781 15.599609 L 10.375 15.599609 A 0.475 0.475 0 0 1 10.375 14.650391 L 14.175781 14.650391 A 0.475 0.475 0 0 0 14.650391 14.175781 L 14.650391 10.375 A 0.475 0.475 0 0 1 15.125 9.9003906 z " />
</svg>
