<?xml version="1.0" encoding="UTF-8" standalone="no"?>
<svg
   xmlns:dc="http://purl.org/dc/elements/1.1/"
   xmlns:cc="http://creativecommons.org/ns#"
   xmlns:rdf="http://www.w3.org/1999/02/22-rdf-syntax-ns#"
   xmlns:svg="http://www.w3.org/2000/svg"
   xmlns="http://www.w3.org/2000/svg"
   xmlns:sodipodi="http://sodipodi.sourceforge.net/DTD/sodipodi-0.dtd"
   xmlns:inkscape="http://www.inkscape.org/namespaces/inkscape"
   width="1em"
   height="1em"
   viewBox="0 0 16 16"
   class="bi bi-fullscreen"
   fill="currentColor"
   version="1.1"
   id="svg8"
   sodipodi:docname="screen-lock.svg"
   inkscape:version="1.0.1 (0767f8302a, 2020-10-17)">
  <metadata
     id="metadata14">
    <rdf:RDF>
      <cc:Work
         rdf:about="">
        <dc:format>image/svg+xml</dc:format>
        <dc:type
           rdf:resource="http://purl.org/dc/dcmitype/StillImage" />
      </cc:Work>
    </rdf:RDF>
  </metadata>
  <defs
     id="defs12" />
  <sodipodi:namedview
     pagecolor="#ffffff"
     bordercolor="#666666"
     borderopacity="1"
     objecttolerance="10"
     gridtolerance="10"
     guidetolerance="10"
     inkscape:pageopacity="0"
     inkscape:pageshadow="2"
     inkscape:window-width="1920"
     inkscape:window-height="1043"
     id="namedview10"
     showgrid="false"
     inkscape:zoom="31.640449"
     inkscape:cx="12.547103"
     inkscape:cy="5.6409518"
     inkscape:window-x="0"
     inkscape:window-y="0"
     inkscape:window-maximized="1"
     inkscape:current-layer="svg8"
     showguides="true"
     inkscape:guide-bbox="true"
     inkscape:document-rotation="0" />
  <path
     id="path1011"
     style="fill:#000000;fill-opacity:0.99973303;stroke-width:4.47851;stroke-linecap:round"
     d="M 0.87890625 0.19921875 C 0.50226225 0.19921875 0.19921875 0.50226225 0.19921875 0.87890625 L 0.19921875 15.121094 C 0.19921875 15.497738 0.50226225 15.800781 0.87890625 15.800781 L 15.121094 15.800781 C 15.497738 15.800781 15.800781 15.497738 15.800781 15.121094 L 15.800781 0.87890625 C 15.800781 0.50226225 15.497738 0.19921875 15.121094 0.19921875 L 0.87890625 0.19921875 z M 1.7949219 0.40039062 A 1.425 1.425 0 0 1 1.8242188 0.40039062 L 5.625 0.40039062 A 0.475 0.475 0 0 1 5.625 1.3496094 L 1.8242188 1.3496094 A 0.475 0.475 0 0 0 1.3496094 1.8242188 L 1.3496094 5.625 A 0.475 0.475 0 0 1 0.40039062 5.625 L 0.40039062 1.8242188 A 1.425 1.425 0 0 1 1.7949219 0.40039062 z M 10.375 0.40039062 L 14.175781 0.40039062 A 1.425 1.425 0 0 1 15.599609 1.8242188 L 15.599609 5.625 A 0.475 0.475 0 0 1 14.650391 5.625 L 14.650391 1.8242188 A 0.475 0.475 0 0 0 14.175781 1.3496094 L 10.375 1.3496094 A 0.475 0.475 0 0 1 9.9003906 0.875 A 0.475 0.475 0 0 1 10.375 0.40039062 z M 8 2.4003906 C 9.5 2.4003906 11 3.5660782 11 5.8964844 L 10.998047 6.9941406 L 9.9980469 6.9941406 L 10 5.8925781 C 10.001122 2.5634246 5.9900914 2.5790597 5.9980469 5.9082031 L 6 7 L 10 7 L 10 7.5 L 11 7.5 L 11 7.0058594 A 1.636364 1.444445 0 0 1 12.5 8.4453125 L 12.5 12.054688 A 1.636364 1.444445 0 0 1 10.863281 13.5 L 5.1367188 13.5 A 1.636364 1.444445 0 0 1 3.5 12.054688 L 3.5 8.4453125 A 1.636364 1.444445 0 0 1 5.1132812 7 L 5 7 L 5 5.8964844 C 5 3.5660782 6.5 2.4003906 8 2.4003906 z M 7.9707031 8.0996094 A 1 1 0 0 0 7.2929688 8.3945312 A 1 1 0 0 0 7.2929688 9.8066406 A 1 1 0 0 0 7.3769531 9.8808594 C 7.3645361 9.9245824 7.3496094 9.9678156 7.3496094 10.015625 L 7.3496094 11.515625 C 7.3496094 11.792625 7.5726094 12.015625 7.8496094 12.015625 L 8.1503906 12.015625 C 8.4273906 12.015625 8.6503906 11.792625 8.6503906 11.515625 L 8.6503906 10.015625 C 8.6503906 9.967816 8.6354639 9.9245818 8.6230469 9.8808594 A 1 1 0 0 0 8.7070312 9.8085938 A 1 1 0 0 0 8.7089844 8.3945312 L 8.7050781 8.390625 A 1 1 0 0 0 7.9707031 8.0996094 z M 0.875 9.9003906 A 0.475 0.475 0 0 1 1.3496094 10.375 L 1.3496094 14.175781 A 0.475 0.475 0 0 0 1.8242188 14.650391 L 5.625 14.650391 A 0.475 0.475 0 0 1 5.625 15.599609 L 1.8242188 15.599609 A 1.425 1.425 0 0 1 0.40039062 14.175781 L 0.40039062 10.375 A 0.475 0.475 0 0 1 0.875 9.9003906 z M 15.125 9.9003906 A 0.475 0.475 0 0 1 15.599609 10.375 L 15.599609 14.175781 A 1.425 1.425 0 0 1 14.175781 15.599609 L 10.375 15.599609 A 0.475 0.475 0 0 1 10.375 14.650391 L 14.175781 14.650391 A 0.475 0.475 0 0 0 14.650391 14.175781 L 14.650391 10.375 A 0.475 0.475 0 0 1 15.125 9.9003906 z " />
</svg>
