<?xml version="1.0" encoding="UTF-8" standalone="no"?>
<svg

   xmlns="http://www.w3.org/2000/svg"

   width="1em"
   height="1em"
   viewBox="0 0 16 16"
   class="bi bi-arrow-right-square-fill"
   fill="currentColor"
   version="1.1"
   id="svg4"
>

  <path
     id="path837"
     style="fill:#000000;fill-opacity:0.999733;stroke-width:4.47851;stroke-linecap:round"
     d="m 15.121094,15.800781 c 0.376644,0 0.679687,-0.303043 0.679687,-0.679687 V 0.87890575 c 0,-0.376644 -0.303043,-0.679687 -0.679687,-0.679687 H 0.87890575 c -0.376644,0 -0.679687,0.303043 -0.679687,0.679687 V 15.121094 c 0,0.376644 0.303043,0.679687 0.679687,0.679687 z M 13.21875,12.5 h -0.02734 c -0.02016,0 -0.03714,-0.0094 -0.05664,-0.01172 -0.02807,-0.0039 -0.05467,-0.0086 -0.08203,-0.01758 -0.04654,-0.01407 -0.08752,-0.03411 -0.126953,-0.06055 -0.005,-0.0035 -0.01075,-0.0042 -0.01563,-0.0078 l -0.03711,-0.0293 c -0.0086,-0.0076 -0.01933,-0.01138 -0.02734,-0.01953 L 8.503906,9.0996092 v 2.9140628 c 10e-8,0.02083 -0.00922,0.03847 -0.011719,0.05859 -0.00332,0.01985 -0.00582,0.03911 -0.011719,0.05859 -0.033557,0.132609 -0.117234,0.238869 -0.234375,0.302735 -0.043172,0.02354 -0.088742,0.03922 -0.138672,0.04883 -0.01902,0.0043 -0.037251,0.0097 -0.056641,0.01172 -0.01153,8.1e-4 -0.021453,0.0059 -0.033203,0.0059 h -0.027344 c -0.02016,0 -0.037131,-0.0094 -0.056641,-0.01172 -0.02807,-0.0039 -0.054671,-0.0086 -0.082031,-0.01758 -0.046534,-0.01407 -0.087513,-0.03411 -0.1269531,-0.06055 -0.00497,-0.0035 -0.010725,-0.0042 -0.015625,-0.0078 l -0.037109,-0.0293 c -0.00856,-0.0076 -0.019344,-0.01138 -0.027344,-0.01953 L 2.4863278,8.488281 c -0.156151,-0.1170739 -0.21843,-0.3095902 -0.18164,-0.4882812 -0.03679,-0.178692 0.02549,-0.3692541 0.18164,-0.4863281 l 5.1582031,-3.867188 c 0.008,-0.00815 0.018744,-0.011931 0.027344,-0.019531 l 0.037109,-0.029297 c 0.00491,-0.0037 0.010625,-0.00431 0.015625,-0.00781 0.041083,-0.02754 0.084072,-0.04844 0.1328125,-0.0625 0.02275,-0.00707 0.045119,-0.010072 0.068359,-0.013672 0.0221,-0.00305 0.041483,-0.013672 0.064453,-0.013672 h 0.027344 c 0.01188,0 0.021533,0.00698 0.033203,0.00781 0.01942,0.002 0.037591,0.00547 0.056641,0.00977 0.185421,0.03569 0.3271269,0.170086 0.3730469,0.351563 0.00582,0.01948 0.00842,0.038743 0.011719,0.058593 0.00252,0.02012 0.011719,0.037764 0.011719,0.058594 V 6.9023436 L 12.845703,3.6464837 c 0.008,-0.00815 0.01878,-0.011931 0.02734,-0.019531 l 0.03711,-0.029297 c 0.0049,-0.0037 0.01063,-0.00431 0.01563,-0.00781 0.04108,-0.02754 0.08408,-0.04844 0.132812,-0.0625 0.02275,-0.00707 0.04511,-0.010072 0.06836,-0.013672 0.0221,-0.00304 0.04149,-0.013672 0.06445,-0.013672 h 0.02735 c 0.01188,0 0.02154,0.00698 0.0332,0.00781 0.01942,0.002 0.03759,0.00547 0.05664,0.00977 0.185421,0.03569 0.327124,0.170085 0.373047,0.351563 0.0059,0.01948 0.0084,0.038743 0.01172,0.058593 0.0025,0.02012 0.01172,0.037764 0.01172,0.058594 v 8.0273443 c 0,0.02083 -0.0092,0.03847 -0.01172,0.05859 -0.0034,0.01985 -0.0059,0.03911 -0.01172,0.05859 -0.03356,0.132609 -0.117234,0.238869 -0.234375,0.302735 -0.04317,0.02354 -0.08874,0.03922 -0.138672,0.04883 -0.01902,0.0043 -0.03725,0.0097 -0.05664,0.01172 -0.01154,8.1e-4 -0.02145,0.0059 -0.0332,0.0059 z" />
</svg>
