<?xml version="1.0" encoding="UTF-8" standalone="no"?>
<svg
   xmlns:dc="http://purl.org/dc/elements/1.1/"
   xmlns:cc="http://creativecommons.org/ns#"
   xmlns:rdf="http://www.w3.org/1999/02/22-rdf-syntax-ns#"
   xmlns:svg="http://www.w3.org/2000/svg"
   xmlns="http://www.w3.org/2000/svg"
   xmlns:sodipodi="http://sodipodi.sourceforge.net/DTD/sodipodi-0.dtd"
   xmlns:inkscape="http://www.inkscape.org/namespaces/inkscape"
   width="1em"
   height="1em"
   viewBox="0 0 16 16"
   class="bi bi-arrow-right-square-fill"
   fill="currentColor"
   version="1.1"
   id="svg4"
   sodipodi:docname="arrow-right.svg"
   inkscape:version="1.0.1 (0767f8302a, 2020-10-17)">
  <metadata
     id="metadata10">
    <rdf:RDF>
      <cc:Work
         rdf:about="">
        <dc:format>image/svg+xml</dc:format>
        <dc:type
           rdf:resource="http://purl.org/dc/dcmitype/StillImage" />
        <dc:title></dc:title>
      </cc:Work>
    </rdf:RDF>
  </metadata>
  <defs
     id="defs8" />
  <sodipodi:namedview
     pagecolor="#ffffff"
     bordercolor="#666666"
     borderopacity="1"
     objecttolerance="10"
     gridtolerance="10"
     guidetolerance="10"
     inkscape:pageopacity="0"
     inkscape:pageshadow="2"
     inkscape:window-width="1856"
     inkscape:window-height="1016"
     id="namedview6"
     showgrid="false"
     inkscape:pagecheckerboard="true"
     borderlayer="false"
     inkscape:zoom="256"
     inkscape:cx="10.577851"
     inkscape:cy="7.4053987"
     inkscape:window-x="1984"
     inkscape:window-y="581"
     inkscape:window-maximized="1"
     inkscape:current-layer="svg4"
     inkscape:document-rotation="0"
     showguides="false" />
  <path
     id="path1011"
     style="fill:#000000;fill-opacity:1;stroke-width:4.47851;stroke-linecap:round"
     d="m 0.19921875,15.121094 c 0,0.376644 0.303043,0.679687 0.679687,0.679687 H 15.121094 c 0.376644,0 0.679687,-0.303043 0.679687,-0.679687 V 0.87890575 c 0,-0.376644 -0.303043,-0.679687 -0.679687,-0.679687 H 0.87890575 c -0.376644,0 -0.679687,0.303043 -0.679687,0.679687 z M 3.9999998,7.9999999 c 0,-0.277 0.223,-0.5000001 0.5,-0.5000001 H 10.292969 L 8.3183594,5.5253907 c -0.1958686,-0.195869 -0.1958686,-0.511163 0,-0.707032 0.1958687,-0.195868 0.5111627,-0.195868 0.7070312,0 l 2.8281254,2.8281256 c 0.04701,0.047012 0.08407,0.1032378 0.109375,0.1660155 0.04897,0.1203407 0.04897,0.2546594 0,0.3750001 -0.0253,0.062778 -0.06236,0.1190032 -0.109375,0.1660156 L 9.0253907,11.18164 c -0.1958685,0.195869 -0.5111626,0.195869 -0.7070313,0 -0.1958685,-0.195868 -0.1958685,-0.511162 0,-0.707031 L 10.292969,8.4999999 H 4.4999998 c -0.277,0 -0.5,-0.223 -0.5,-0.5 z" />
  <rect
     style="fill:#ffffff;fill-opacity:0.99973303;stroke-width:3.40157;stroke-linecap:round"
     id="rect1398"
     width="8"
     height="1"
     x="4"
     y="7.5"
     ry="0.5"
     rx="0.5" />
  <rect
     style="fill:#ffffff;fill-opacity:0.999733;stroke-width:2.68917;stroke-linecap:round"
     id="rect1398-3"
     width="5"
     height="1"
     x="-2.0255313"
     y="13.28882"
     ry="0.5"
     rx="0.5"
     transform="rotate(-45)" />
  <rect
     style="fill:#ffffff;fill-opacity:0.999733;stroke-width:2.68917;stroke-linecap:round"
     id="rect1398-3-6"
     width="5"
     height="1"
     x="9.288415"
     y="1.9748737"
     ry="0.5"
     rx="0.5"
     transform="matrix(0.70710678,0.70710678,0.70710678,-0.70710678,0,0)" />
</svg>
