<?xml version="1.0" encoding="UTF-8" standalone="no"?>
<svg

   xmlns="http://www.w3.org/2000/svg"

   width="1em"
   height="1em"
   viewBox="0 0 16 16"
   class="bi bi-arrow-right-square-fill"
   fill="currentColor"
   version="1.1"
   id="svg4"
>

  <path
     style="fill:#000000;fill-opacity:0.99973273;stroke-width:4.47851;stroke-linecap:round"
     d="m 0.19921875,15.121094 c 0,0.376644 0.303043,0.679687 0.679687,0.679687 H 15.121094 c 0.376644,0 0.679687,-0.303043 0.679687,-0.679687 V 0.87890575 c 0,-0.376644 -0.303043,-0.679687 -0.679687,-0.679687 H 0.87890575 c -0.376644,0 -0.679687,0.303043 -0.679687,0.679687 z"
     id="path1011" />
  <g
     id="g1045"
     transform="translate(-0.01537368)">
    <path
       id="rect893-5-5"
       style="fill:#ededed;fill-opacity:1;stroke-width:3.80307;stroke-linecap:round"
       d="m 2.7963279,3.4999925 c -0.011748,0 -0.021668,0.00505 -0.033203,0.00586 -0.019392,0.00199 -0.037617,0.00742 -0.056641,0.011719 -0.049931,0.00961 -0.095503,0.025292 -0.1386719,0.048828 C 2.4506709,3.6302645 2.3669934,3.7365254 2.333437,3.8691339 2.327567,3.8886199 2.325067,3.9078779 2.321718,3.9277279 2.319208,3.9478519 2.31,3.9654919 2.31,3.9863209 v 8.0273431 c 0,0.02083 0.0092,0.03847 0.011719,0.05859 0.00335,0.01985 0.00585,0.03911 0.011719,0.05859 0.045923,0.181478 0.1876258,0.315873 0.3730469,0.351563 0.01905,0.0043 0.037221,0.0078 0.056641,0.0098 0.011667,8.29e-4 0.021318,0.0078 0.033203,0.0078 h 0.027344 c 0.022966,0 0.042351,-0.01063 0.064453,-0.01367 0.023245,-0.0036 0.045608,-0.0066 0.068359,-0.01367 0.048736,-0.01406 0.091732,-0.03496 0.1328125,-0.0625 0.00499,-0.0035 0.010723,-0.0041 0.015625,-0.0078 l 0.037109,-0.0293 c 0.00856,-0.0076 0.019336,-0.01138 0.027344,-0.01953 L 8.3275778,8.4863206 C 8.4837318,8.3692474 8.5460088,8.178684 8.5092188,7.9999925 8.5460088,7.8213013 8.4837318,7.6287846 8.3275778,7.5117113 L 3.1693748,3.6464769 c -0.00801,-0.00815 -0.018779,-0.01196 -0.027344,-0.019531 l -0.037109,-0.029297 c -0.00488,-0.00366 -0.010656,-0.00436 -0.015625,-0.00781 -0.039436,-0.026437 -0.080416,-0.046482 -0.1269531,-0.060547 -0.02736,-0.00893 -0.053958,-0.01366 -0.082031,-0.017578 -0.019506,-0.00236 -0.03648,-0.011721 -0.056641,-0.011721 z m 0.5136719,1.5019531 4,2.9980469 -4,2.9980465 z" />
    <path
       id="rect893-5-5-6"
       style="fill:#ededed;fill-opacity:1;stroke-width:3.80307;stroke-linecap:round"
       d="m 7.9975798,3.4999922 c -0.01175,0 -0.02167,0.00505 -0.0332,0.00586 -0.01939,0.00199 -0.03762,0.00742 -0.05664,0.011719 -0.04993,0.00961 -0.0955,0.025292 -0.138672,0.048828 -0.117141,0.063865 -0.200818,0.1701259 -0.234375,0.3027344 -0.0059,0.019486 -0.0084,0.038744 -0.01172,0.058594 -0.0025,0.020124 -0.01172,0.037764 -0.01172,0.058593 v 8.0273444 c 0,0.02083 0.0092,0.03847 0.01172,0.05859 0.0033,0.01985 0.0059,0.03911 0.01172,0.05859 0.04592,0.181477 0.187626,0.315873 0.373047,0.351563 0.01905,0.0043 0.03722,0.0078 0.05664,0.0098 0.01167,8.29e-4 0.02132,0.0078 0.0332,0.0078 h 0.02734 c 0.02297,0 0.04235,-0.01062 0.06445,-0.01367 0.02324,-0.0036 0.04561,-0.0066 0.06836,-0.01367 0.04874,-0.01406 0.09173,-0.03496 0.132813,-0.0625 0.005,-0.0035 0.01072,-0.0041 0.01563,-0.0078 l 0.03711,-0.0293 c 0.0086,-0.0076 0.01934,-0.01138 0.02734,-0.01953 L 13.528826,8.4863211 c 0.156154,-0.117074 0.218431,-0.307637 0.181641,-0.486329 0.03679,-0.178691 -0.02549,-0.371207 -0.181641,-0.488281 L 8.3706278,3.6464766 c -0.008,-0.00815 -0.01878,-0.01196 -0.02734,-0.019531 l -0.03711,-0.029297 c -0.0049,-0.00366 -0.01066,-0.00436 -0.01563,-0.00781 -0.03944,-0.026437 -0.08042,-0.046482 -0.126954,-0.060547 -0.02736,-0.00893 -0.05396,-0.01366 -0.08203,-0.017578 -0.01951,-0.00236 -0.03648,-0.011721 -0.05664,-0.011721 z m 0.513673,1.5019535 4.0000002,2.998046 -4.0000002,2.9980463 z" />
  </g>
</svg>
