<?xml version="1.0" encoding="UTF-8" standalone="no"?>
<svg

   xmlns="http://www.w3.org/2000/svg"

   width="1em"
   height="1em"
   viewBox="0 0 16 16"
   class="bi bi-arrow-right-square-fill"
   fill="currentColor"
   version="1.1"
   id="svg4"
>

  <rect
     style="fill:#000000;fill-opacity:1;stroke-width:4.4785;stroke-linecap:round"
     id="rect863"
     width="15.6"
     height="15.6"
     x="0.2"
     y="0.2"
     ry="0.67986339" />
  <g
     id="g1080"
     transform="rotate(180,3.4753286,3.4753286)">
    <rect
       style="fill:#fefdfd;stroke-width:3.80304;stroke-linecap:round"
       id="rect835-3"
       width="5"
       height="1"
       x="-5"
       y="0"
       ry="0.5"
       transform="rotate(-90)" />
    <rect
       style="fill:#fefdfd;stroke-width:3.80304;stroke-linecap:round"
       id="rect835-3-7-5-3-5-6-2"
       width="5"
       height="1"
       x="0"
       y="0"
       ry="0.5" />
    <rect
       style="fill:#fefdfd;stroke-width:4.81052;stroke-linecap:round"
       id="rect835-1"
       width="8"
       height="1"
       x="0.20774999"
       y="-0.5"
       ry="0.5"
       transform="rotate(45)" />
  </g>
  <g
     id="g1103"
     transform="rotate(180,12.025329,12.025329)">
    <rect
       style="fill:#fefdfd;stroke-width:3.80304;stroke-linecap:round"
       id="rect835-3-7-5"
       width="5"
       height="1"
       x="-15"
       y="14"
       ry="0.5"
       transform="rotate(-90)" />
    <rect
       style="fill:#fefdfd;stroke-width:3.80304;stroke-linecap:round"
       id="rect835-3-7-5-3-5"
       width="5"
       height="1"
       x="10.000001"
       y="14"
       ry="0.5" />
    <rect
       style="fill:#fefdfd;stroke-width:4.81052;stroke-linecap:round"
       id="rect835-1-2"
       width="8"
       height="1"
       x="13.006383"
       y="-0.5"
       ry="0.5"
       transform="rotate(45)" />
  </g>
  <g
     id="g1108"
     transform="rotate(180,3.9753289,12.025329)">
    <rect
       style="fill:#fefdfd;stroke-width:3.80304;stroke-linecap:round"
       id="rect835-3-7-5-3"
       width="5"
       height="1"
       x="-15"
       y="1"
       ry="0.5"
       transform="rotate(-90)" />
    <rect
       style="fill:#fefdfd;stroke-width:3.80304;stroke-linecap:round"
       id="rect835-3-7-5-3-5-6"
       width="5"
       height="1"
       x="1"
       y="14.000001"
       ry="0.5" />
    <rect
       style="fill:#fefdfd;stroke-width:4.81052;stroke-linecap:round"
       id="rect835-1-2-7"
       width="8"
       height="1"
       x="1.6922095"
       y="-11.814174"
       ry="0.5"
       transform="rotate(135)" />
  </g>
  <g
     id="g1075"
     transform="rotate(180,12.525329,3.4753287)">
    <rect
       style="fill:#fefdfd;stroke-width:3.80304;stroke-linecap:round"
       id="rect835-3-7"
       width="5"
       height="1"
       x="-5"
       y="15"
       ry="0.5"
       transform="rotate(-90)" />
    <rect
       style="fill:#fefdfd;stroke-width:3.80304;stroke-linecap:round"
       id="rect835-3-7-5-3-5-6-2-9"
       width="5"
       height="1"
       x="11"
       y="0"
       ry="0.5" />
    <rect
       style="fill:#fefdfd;stroke-width:4.81052;stroke-linecap:round"
       id="rect835-1-2-7-0"
       width="8"
       height="1"
       x="-11.106423"
       y="-11.814174"
       ry="0.5"
       transform="rotate(135)" />
  </g>
</svg>
